<svg xmlns="http://www.w3.org/2000/svg" xmlns:xlink="http://www.w3.org/1999/xlink" contentStyleType="text/css" height="732px" preserveAspectRatio="none" style="width:1484px;height:732px;background:#FFFFFF;" version="1.1" viewBox="0 0 1484 732" width="1484px" zoomAndPan="magnify"><defs/><g><!--cluster f9d64574f10b019984eb5c2df9132c97--><g id="cluster_f9d64574f10b019984eb5c2df9132c97"><path d="M8.5,6 L171.5,6 A3.75,3.75 0 0 1 174,8.5 L181,28.2969 L1091.5,28.2969 A2.5,2.5 0 0 1 1094,30.7969 L1094,722.95 A2.5,2.5 0 0 1 1091.5,725.45 L8.5,725.45 A2.5,2.5 0 0 1 6,722.95 L6,8.5 A2.5,2.5 0 0 1 8.5,6 " fill="none" style="stroke:#000000;stroke-width:1.5;"/><line style="stroke:#000000;stroke-width:1.5;" x1="6" x2="181" y1="28.2969" y2="28.2969"/><text fill="#000000" font-family="sans-serif" font-size="14" font-weight="bold" lengthAdjust="spacing" textLength="162" x="10" y="20.9951">termsandconditions/</text></g><!--cluster 05a2166b5a1b6ab1af267b8e5f617bd9--><g id="cluster_05a2166b5a1b6ab1af267b8e5f617bd9"><path d="M32.5,413.67 L140.5,413.67 A3.75,3.75 0 0 1 143,416.17 L150,435.9669 L401.5,435.9669 A2.5,2.5 0 0 1 404,438.4669 L404,608.06 A2.5,2.5 0 0 1 401.5,610.56 L32.5,610.56 A2.5,2.5 0 0 1 30,608.06 L30,416.17 A2.5,2.5 0 0 1 32.5,413.67 " fill="none" style="stroke:#000000;stroke-width:1.5;"/><line style="stroke:#000000;stroke-width:1.5;" x1="30" x2="150" y1="435.9669" y2="435.9669"/><text fill="#000000" font-family="sans-serif" font-size="14" font-weight="bold" lengthAdjust="spacing" textLength="107" x="34" y="428.6651">management/</text></g><!--cluster faf762e42104d29afaba73d41f49bf72--><g id="cluster_faf762e42104d29afaba73d41f49bf72"><path d="M56.5,456.67 L147.5,456.67 A3.75,3.75 0 0 1 150,459.17 L157,478.9669 L377.5,478.9669 A2.5,2.5 0 0 1 380,481.4669 L380,584.06 A2.5,2.5 0 0 1 377.5,586.56 L56.5,586.56 A2.5,2.5 0 0 1 54,584.06 L54,459.17 A2.5,2.5 0 0 1 56.5,456.67 " fill="none" style="stroke:#000000;stroke-width:1.5;"/><line style="stroke:#000000;stroke-width:1.5;" x1="54" x2="157" y1="478.9669" y2="478.9669"/><text fill="#000000" font-family="sans-serif" font-size="14" font-weight="bold" lengthAdjust="spacing" textLength="90" x="58" y="471.6651">commands/</text></g><!--cluster 96b662b8ea401781cfe63538b30e0b59--><g id="cluster_96b662b8ea401781cfe63538b30e0b59"><path d="M581.5,144.89 L690.5,144.89 A3.75,3.75 0 0 1 693,147.39 L700,167.1869 L736.5,167.1869 A2.5,2.5 0 0 1 739,169.6869 L739,272.28 A2.5,2.5 0 0 1 736.5,274.78 L581.5,274.78 A2.5,2.5 0 0 1 579,272.28 L579,147.39 A2.5,2.5 0 0 1 581.5,144.89 " fill="none" style="stroke:#000000;stroke-width:1.5;"/><line style="stroke:#000000;stroke-width:1.5;" x1="579" x2="700" y1="167.1869" y2="167.1869"/><text fill="#000000" font-family="sans-serif" font-size="14" font-weight="bold" lengthAdjust="spacing" textLength="108" x="583" y="159.8851">templatetags/</text></g><!--cluster e0cf363d684b851527bfcf9c8e3250d2--><g id="cluster_e0cf363d684b851527bfcf9c8e3250d2"><path d="M1120.5,6 L1334.5,6 A3.75,3.75 0 0 1 1337,8.5 L1344,28.2969 L1474.5,28.2969 A2.5,2.5 0 0 1 1477,30.7969 L1477,272.28 A2.5,2.5 0 0 1 1474.5,274.78 L1120.5,274.78 A2.5,2.5 0 0 1 1118,272.28 L1118,8.5 A2.5,2.5 0 0 1 1120.5,6 " fill="none" style="stroke:#000000;stroke-width:1.5;"/><line style="stroke:#000000;stroke-width:1.5;" x1="1118" x2="1344" y1="28.2969" y2="28.2969"/><text fill="#000000" font-family="sans-serif" font-size="14" font-weight="bold" lengthAdjust="spacing" textLength="213" x="1122" y="20.9951">termsandconditions_demo/</text></g><!--entity e89a2547a2d5b65ce72404c6afccd2c0--><g id="elem_e89a2547a2d5b65ce72404c6afccd2c0"><rect fill="#F1F1F1" height="78.8906" rx="2.5" ry="2.5" style="stroke:#181818;stroke-width:0.5;" width="132" x="788" y="318.78"/><rect fill="#F1F1F1" height="10" style="stroke:#181818;stroke-width:0.5;" width="15" x="900" y="323.78"/><rect fill="#F1F1F1" height="2" style="stroke:#181818;stroke-width:0.5;" width="4" x="898" y="325.78"/><rect fill="#F1F1F1" height="2" style="stroke:#181818;stroke-width:0.5;" width="4" x="898" y="329.78"/><text fill="#000000" font-family="sans-serif" font-size="14" font-weight="bold" lengthAdjust="spacing" textLength="92" x="803" y="351.7751">middleware</text><text fill="#000000" font-family="sans-serif" font-size="14" lengthAdjust="spacing" textLength="4" x="803" y="368.072">&#160;</text><text fill="#000000" font-family="sans-serif" font-size="14" lengthAdjust="spacing" textLength="4" x="803" y="384.3689">&#160;</text></g><!--entity 57705f9c25e95f8fa9ae667ee4232094--><g id="elem_57705f9c25e95f8fa9ae667ee4232094"><rect fill="#F1F1F1" height="78.8906" rx="2.5" ry="2.5" style="stroke:#181818;stroke-width:0.5;" width="127" x="892.5" y="179.89"/><rect fill="#F1F1F1" height="10" style="stroke:#181818;stroke-width:0.5;" width="15" x="999.5" y="184.89"/><rect fill="#F1F1F1" height="2" style="stroke:#181818;stroke-width:0.5;" width="4" x="997.5" y="186.89"/><rect fill="#F1F1F1" height="2" style="stroke:#181818;stroke-width:0.5;" width="4" x="997.5" y="190.89"/><text fill="#000000" font-family="sans-serif" font-size="14" font-weight="bold" lengthAdjust="spacing" textLength="87" x="907.5" y="212.8851">decorators</text><text fill="#000000" font-family="sans-serif" font-size="14" lengthAdjust="spacing" textLength="4" x="907.5" y="229.182">&#160;</text><text fill="#000000" font-family="sans-serif" font-size="14" lengthAdjust="spacing" textLength="4" x="907.5" y="245.4789">&#160;</text></g><!--entity e50667032a754b9523110aa24c73e3fb--><g id="elem_e50667032a754b9523110aa24c73e3fb"><rect fill="#F1F1F1" height="78.8906" rx="2.5" ry="2.5" style="stroke:#181818;stroke-width:0.5;" width="86" x="420" y="491.67"/><rect fill="#F1F1F1" height="10" style="stroke:#181818;stroke-width:0.5;" width="15" x="486" y="496.67"/><rect fill="#F1F1F1" height="2" style="stroke:#181818;stroke-width:0.5;" width="4" x="484" y="498.67"/><rect fill="#F1F1F1" height="2" style="stroke:#181818;stroke-width:0.5;" width="4" x="484" y="502.67"/><text fill="#000000" font-family="sans-serif" font-size="14" font-weight="bold" lengthAdjust="spacing" textLength="46" x="435" y="524.6651">forms</text><text fill="#000000" font-family="sans-serif" font-size="14" lengthAdjust="spacing" textLength="4" x="435" y="540.962">&#160;</text><text fill="#000000" font-family="sans-serif" font-size="14" lengthAdjust="spacing" textLength="4" x="435" y="557.2589">&#160;</text></g><!--entity e8c746b209cfb66a7d680c5770a77ad6--><g id="elem_e8c746b209cfb66a7d680c5770a77ad6"><rect fill="#F1F1F1" height="78.8906" rx="2.5" ry="2.5" style="stroke:#181818;stroke-width:0.5;" width="70" x="440" y="179.89"/><rect fill="#F1F1F1" height="10" style="stroke:#181818;stroke-width:0.5;" width="15" x="490" y="184.89"/><rect fill="#F1F1F1" height="2" style="stroke:#181818;stroke-width:0.5;" width="4" x="488" y="186.89"/><rect fill="#F1F1F1" height="2" style="stroke:#181818;stroke-width:0.5;" width="4" x="488" y="190.89"/><text fill="#000000" font-family="sans-serif" font-size="14" font-weight="bold" lengthAdjust="spacing" textLength="30" x="455" y="212.8851">urls</text><text fill="#000000" font-family="sans-serif" font-size="14" lengthAdjust="spacing" textLength="4" x="455" y="229.182">&#160;</text><text fill="#000000" font-family="sans-serif" font-size="14" lengthAdjust="spacing" textLength="4" x="455" y="245.4789">&#160;</text></g><!--entity 6dbcf28e6ec0c3e95d36e31fc671db84--><g id="elem_6dbcf28e6ec0c3e95d36e31fc671db84"><rect fill="#F1F1F1" height="78.8906" rx="2.5" ry="2.5" style="stroke:#181818;stroke-width:0.5;" width="102" x="652" y="491.67"/><rect fill="#F1F1F1" height="10" style="stroke:#181818;stroke-width:0.5;" width="15" x="734" y="496.67"/><rect fill="#F1F1F1" height="2" style="stroke:#181818;stroke-width:0.5;" width="4" x="732" y="498.67"/><rect fill="#F1F1F1" height="2" style="stroke:#181818;stroke-width:0.5;" width="4" x="732" y="502.67"/><text fill="#000000" font-family="sans-serif" font-size="14" font-weight="bold" lengthAdjust="spacing" textLength="62" x="667" y="524.6651">pipeline</text><text fill="#000000" font-family="sans-serif" font-size="14" lengthAdjust="spacing" textLength="4" x="667" y="540.962">&#160;</text><text fill="#000000" font-family="sans-serif" font-size="14" lengthAdjust="spacing" textLength="4" x="667" y="557.2589">&#160;</text></g><!--entity f72c8ef5616765c0aa192f24c8657254--><g id="elem_f72c8ef5616765c0aa192f24c8657254"><rect fill="#F1F1F1" height="78.8906" rx="2.5" ry="2.5" style="stroke:#181818;stroke-width:0.5;" width="86" x="432" y="318.78"/><rect fill="#F1F1F1" height="10" style="stroke:#181818;stroke-width:0.5;" width="15" x="498" y="323.78"/><rect fill="#F1F1F1" height="2" style="stroke:#181818;stroke-width:0.5;" width="4" x="496" y="325.78"/><rect fill="#F1F1F1" height="2" style="stroke:#181818;stroke-width:0.5;" width="4" x="496" y="329.78"/><text fill="#000000" font-family="sans-serif" font-size="14" font-weight="bold" lengthAdjust="spacing" textLength="46" x="447" y="351.7751">views</text><text fill="#000000" font-family="sans-serif" font-size="14" lengthAdjust="spacing" textLength="4" x="447" y="368.072">&#160;</text><text fill="#000000" font-family="sans-serif" font-size="14" lengthAdjust="spacing" textLength="4" x="447" y="384.3689">&#160;</text></g><!--entity f26d1c16dfbc137cbf45ada95568c459--><g id="elem_f26d1c16dfbc137cbf45ada95568c459"><rect fill="#F1F1F1" height="78.8906" rx="2.5" ry="2.5" style="stroke:#181818;stroke-width:0.5;" width="95" x="788.5" y="491.67"/><rect fill="#F1F1F1" height="10" style="stroke:#181818;stroke-width:0.5;" width="15" x="863.5" y="496.67"/><rect fill="#F1F1F1" height="2" style="stroke:#181818;stroke-width:0.5;" width="4" x="861.5" y="498.67"/><rect fill="#F1F1F1" height="2" style="stroke:#181818;stroke-width:0.5;" width="4" x="861.5" y="502.67"/><text fill="#000000" font-family="sans-serif" font-size="14" font-weight="bold" lengthAdjust="spacing" textLength="55" x="803.5" y="524.6651">signals</text><text fill="#000000" font-family="sans-serif" font-size="14" lengthAdjust="spacing" textLength="4" x="803.5" y="540.962">&#160;</text><text fill="#000000" font-family="sans-serif" font-size="14" lengthAdjust="spacing" textLength="4" x="803.5" y="557.2589">&#160;</text></g><!--entity 7c3d136f9a1db9869ab1c166c7e12bc4--><g id="elem_7c3d136f9a1db9869ab1c166c7e12bc4"><rect fill="#F1F1F1" height="78.8906" rx="2.5" ry="2.5" style="stroke:#181818;stroke-width:0.5;" width="80" x="619" y="41"/><rect fill="#F1F1F1" height="10" style="stroke:#181818;stroke-width:0.5;" width="15" x="679" y="46"/><rect fill="#F1F1F1" height="2" style="stroke:#181818;stroke-width:0.5;" width="4" x="677" y="48"/><rect fill="#F1F1F1" height="2" style="stroke:#181818;stroke-width:0.5;" width="4" x="677" y="52"/><text fill="#000000" font-family="sans-serif" font-size="14" font-weight="bold" lengthAdjust="spacing" textLength="40" x="634" y="73.9951">tests</text><text fill="#000000" font-family="sans-serif" font-size="14" lengthAdjust="spacing" textLength="4" x="634" y="90.292">&#160;</text><text fill="#000000" font-family="sans-serif" font-size="14" lengthAdjust="spacing" textLength="4" x="634" y="106.5889">&#160;</text></g><!--entity e38c47eef400b0dc4e25b0e915de3348--><g id="elem_e38c47eef400b0dc4e25b0e915de3348"><rect fill="#F1F1F1" height="78.8906" rx="2.5" ry="2.5" style="stroke:#181818;stroke-width:0.5;" width="78" x="870" y="41"/><rect fill="#F1F1F1" height="10" style="stroke:#181818;stroke-width:0.5;" width="15" x="928" y="46"/><rect fill="#F1F1F1" height="2" style="stroke:#181818;stroke-width:0.5;" width="4" x="926" y="48"/><rect fill="#F1F1F1" height="2" style="stroke:#181818;stroke-width:0.5;" width="4" x="926" y="52"/><text fill="#000000" font-family="sans-serif" font-size="14" font-weight="bold" lengthAdjust="spacing" textLength="38" x="885" y="73.9951">apps</text><text fill="#000000" font-family="sans-serif" font-size="14" lengthAdjust="spacing" textLength="4" x="885" y="90.292">&#160;</text><text fill="#000000" font-family="sans-serif" font-size="14" lengthAdjust="spacing" textLength="4" x="885" y="106.5889">&#160;</text></g><!--entity 93702543f41f355b4dbfaee831ce38a7--><g id="elem_93702543f41f355b4dbfaee831ce38a7"><rect fill="#F1F1F1" height="78.8906" rx="2.5" ry="2.5" style="stroke:#181818;stroke-width:0.5;" width="97" x="610.5" y="630.56"/><rect fill="#F1F1F1" height="10" style="stroke:#181818;stroke-width:0.5;" width="15" x="687.5" y="635.56"/><rect fill="#F1F1F1" height="2" style="stroke:#181818;stroke-width:0.5;" width="4" x="685.5" y="637.56"/><rect fill="#F1F1F1" height="2" style="stroke:#181818;stroke-width:0.5;" width="4" x="685.5" y="641.56"/><text fill="#000000" font-family="sans-serif" font-size="14" font-weight="bold" lengthAdjust="spacing" textLength="57" x="625.5" y="663.5551">models</text><text fill="#000000" font-family="sans-serif" font-size="14" lengthAdjust="spacing" textLength="4" x="625.5" y="679.852">&#160;</text><text fill="#000000" font-family="sans-serif" font-size="14" lengthAdjust="spacing" textLength="4" x="625.5" y="696.1489">&#160;</text></g><!--entity 5ec88310017ea2e191b5d4479d729b52--><g id="elem_5ec88310017ea2e191b5d4479d729b52"><rect fill="#F1F1F1" height="78.8906" rx="2.5" ry="2.5" style="stroke:#181818;stroke-width:0.5;" width="87" x="991.5" y="491.67"/><rect fill="#F1F1F1" height="10" style="stroke:#181818;stroke-width:0.5;" width="15" x="1058.5" y="496.67"/><rect fill="#F1F1F1" height="2" style="stroke:#181818;stroke-width:0.5;" width="4" x="1056.5" y="498.67"/><rect fill="#F1F1F1" height="2" style="stroke:#181818;stroke-width:0.5;" width="4" x="1056.5" y="502.67"/><text fill="#000000" font-family="sans-serif" font-size="14" font-weight="bold" lengthAdjust="spacing" textLength="47" x="1006.5" y="524.6651">admin</text><text fill="#000000" font-family="sans-serif" font-size="14" lengthAdjust="spacing" textLength="4" x="1006.5" y="540.962">&#160;</text><text fill="#000000" font-family="sans-serif" font-size="14" lengthAdjust="spacing" textLength="4" x="1006.5" y="557.2589">&#160;</text></g><!--entity 4fe48c0ac95349dd0a4667648f26a5e2--><g id="elem_4fe48c0ac95349dd0a4667648f26a5e2"><rect fill="#F1F1F1" height="78.8906" rx="2.5" ry="2.5" style="stroke:#181818;stroke-width:0.5;" width="295" x="69.5" y="491.67"/><rect fill="#F1F1F1" height="10" style="stroke:#181818;stroke-width:0.5;" width="15" x="344.5" y="496.67"/><rect fill="#F1F1F1" height="2" style="stroke:#181818;stroke-width:0.5;" width="4" x="342.5" y="498.67"/><rect fill="#F1F1F1" height="2" style="stroke:#181818;stroke-width:0.5;" width="4" x="342.5" y="502.67"/><text fill="#000000" font-family="sans-serif" font-size="14" font-weight="bold" lengthAdjust="spacing" textLength="255" x="84.5" y="524.6651">remove_old_version_acceptance</text><text fill="#000000" font-family="sans-serif" font-size="14" lengthAdjust="spacing" textLength="4" x="84.5" y="540.962">&#160;</text><text fill="#000000" font-family="sans-serif" font-size="14" lengthAdjust="spacing" textLength="4" x="84.5" y="557.2589">&#160;</text></g><!--entity ffa764f51f5c0719431093a954c2f981--><g id="elem_ffa764f51f5c0719431093a954c2f981"><rect fill="#F1F1F1" height="78.8906" rx="2.5" ry="2.5" style="stroke:#181818;stroke-width:0.5;" width="127" x="595.5" y="179.89"/><rect fill="#F1F1F1" height="10" style="stroke:#181818;stroke-width:0.5;" width="15" x="702.5" y="184.89"/><rect fill="#F1F1F1" height="2" style="stroke:#181818;stroke-width:0.5;" width="4" x="700.5" y="186.89"/><rect fill="#F1F1F1" height="2" style="stroke:#181818;stroke-width:0.5;" width="4" x="700.5" y="190.89"/><text fill="#000000" font-family="sans-serif" font-size="14" font-weight="bold" lengthAdjust="spacing" textLength="87" x="610.5" y="212.8851">terms_tags</text><text fill="#000000" font-family="sans-serif" font-size="14" lengthAdjust="spacing" textLength="4" x="610.5" y="229.182">&#160;</text><text fill="#000000" font-family="sans-serif" font-size="14" lengthAdjust="spacing" textLength="4" x="610.5" y="245.4789">&#160;</text></g><!--entity 5c747af86ec3d8abd59006b0c4185391--><g id="elem_5c747af86ec3d8abd59006b0c4185391"><rect fill="#F1F1F1" height="78.8906" rx="2.5" ry="2.5" style="stroke:#181818;stroke-width:0.5;" width="223" x="1133.5" y="41"/><rect fill="#F1F1F1" height="10" style="stroke:#181818;stroke-width:0.5;" width="15" x="1336.5" y="46"/><rect fill="#F1F1F1" height="2" style="stroke:#181818;stroke-width:0.5;" width="4" x="1334.5" y="48"/><rect fill="#F1F1F1" height="2" style="stroke:#181818;stroke-width:0.5;" width="4" x="1334.5" y="52"/><text fill="#000000" font-family="sans-serif" font-size="14" font-weight="bold" lengthAdjust="spacing" textLength="183" x="1148.5" y="73.9951">settings_local_template</text><text fill="#000000" font-family="sans-serif" font-size="14" lengthAdjust="spacing" textLength="4" x="1148.5" y="90.292">&#160;</text><text fill="#000000" font-family="sans-serif" font-size="14" lengthAdjust="spacing" textLength="4" x="1148.5" y="106.5889">&#160;</text></g><!--entity 06688d780595b8c350a2894384fe43b2--><g id="elem_06688d780595b8c350a2894384fe43b2"><rect fill="#F1F1F1" height="78.8906" rx="2.5" ry="2.5" style="stroke:#181818;stroke-width:0.5;" width="70" x="1391" y="41"/><rect fill="#F1F1F1" height="10" style="stroke:#181818;stroke-width:0.5;" width="15" x="1441" y="46"/><rect fill="#F1F1F1" height="2" style="stroke:#181818;stroke-width:0.5;" width="4" x="1439" y="48"/><rect fill="#F1F1F1" height="2" style="stroke:#181818;stroke-width:0.5;" width="4" x="1439" y="52"/><text fill="#000000" font-family="sans-serif" font-size="14" font-weight="bold" lengthAdjust="spacing" textLength="30" x="1406" y="73.9951">urls</text><text fill="#000000" font-family="sans-serif" font-size="14" lengthAdjust="spacing" textLength="4" x="1406" y="90.292">&#160;</text><text fill="#000000" font-family="sans-serif" font-size="14" lengthAdjust="spacing" textLength="4" x="1406" y="106.5889">&#160;</text></g><!--entity c5e57a6d6341ad17dccba3c345981930--><g id="elem_c5e57a6d6341ad17dccba3c345981930"><rect fill="#F1F1F1" height="78.8906" rx="2.5" ry="2.5" style="stroke:#181818;stroke-width:0.5;" width="86" x="1375" y="179.89"/><rect fill="#F1F1F1" height="10" style="stroke:#181818;stroke-width:0.5;" width="15" x="1441" y="184.89"/><rect fill="#F1F1F1" height="2" style="stroke:#181818;stroke-width:0.5;" width="4" x="1439" y="186.89"/><rect fill="#F1F1F1" height="2" style="stroke:#181818;stroke-width:0.5;" width="4" x="1439" y="190.89"/><text fill="#000000" font-family="sans-serif" font-size="14" font-weight="bold" lengthAdjust="spacing" textLength="46" x="1390" y="212.8851">views</text><text fill="#000000" font-family="sans-serif" font-size="14" lengthAdjust="spacing" textLength="4" x="1390" y="229.182">&#160;</text><text fill="#000000" font-family="sans-serif" font-size="14" lengthAdjust="spacing" textLength="4" x="1390" y="245.4789">&#160;</text></g><!--link e89a2547a2d5b65ce72404c6afccd2c0 to 93702543f41f355b4dbfaee831ce38a7--><g id="link_e89a2547a2d5b65ce72404c6afccd2c0_93702543f41f355b4dbfaee831ce38a7"><path codeLine="92" d="M897.04,397.96 C898.56,400.45 899.89,403.02 901,405.67 C937.47,492.98 960.69,545.14 901,618.56 C877.14,647.9 777.4103,660.2644 713.8603,665.4244 " fill="none" id="e89a2547a2d5b65ce72404c6afccd2c0-to-93702543f41f355b4dbfaee831ce38a7" style="stroke:#181818;stroke-width:1.0;"/><polygon fill="#181818" points="707.88,665.91,717.1742,669.1685,712.8636,665.5054,716.5268,661.1948,707.88,665.91" style="stroke:#181818;stroke-width:1.0;"/></g><!--link e89a2547a2d5b65ce72404c6afccd2c0 to 6dbcf28e6ec0c3e95d36e31fc671db84--><g id="link_e89a2547a2d5b65ce72404c6afccd2c0_6dbcf28e6ec0c3e95d36e31fc671db84"><path codeLine="93" d="M787.61,391.7 C781.65,395.96 776,400.62 771,405.67 C746.84,430.08 731.185,459.3258 719.785,485.9058 " fill="none" id="e89a2547a2d5b65ce72404c6afccd2c0-to-6dbcf28e6ec0c3e95d36e31fc671db84" style="stroke:#181818;stroke-width:1.0;"/><polygon fill="#181818" points="717.42,491.42,724.6437,484.7253,719.3908,486.8248,717.2914,481.572,717.42,491.42" style="stroke:#181818;stroke-width:1.0;"/></g><!--link 57705f9c25e95f8fa9ae667ee4232094 to 93702543f41f355b4dbfaee831ce38a7--><g id="link_57705f9c25e95f8fa9ae667ee4232094_93702543f41f355b4dbfaee831ce38a7"><path codeLine="94" d="M959,259.04 C965.08,348.57 974.57,566.29 928,618.56 C899.47,650.58 783.4288,662.1529 713.9388,666.4129 " fill="none" id="57705f9c25e95f8fa9ae667ee4232094-to-93702543f41f355b4dbfaee831ce38a7" style="stroke:#181818;stroke-width:1.0;"/><polygon fill="#181818" points="707.95,666.78,717.1779,670.2218,712.9406,666.4741,716.6884,662.2368,707.95,666.78" style="stroke:#181818;stroke-width:1.0;"/></g><!--link 57705f9c25e95f8fa9ae667ee4232094 to e89a2547a2d5b65ce72404c6afccd2c0--><g id="link_57705f9c25e95f8fa9ae667ee4232094_e89a2547a2d5b65ce72404c6afccd2c0"><path codeLine="95" d="M927.04,259.19 C913.14,277.85 900.1238,295.3179 886.2638,313.9279 " fill="none" id="57705f9c25e95f8fa9ae667ee4232094-to-e89a2547a2d5b65ce72404c6afccd2c0" style="stroke:#181818;stroke-width:1.0;"/><polygon fill="#181818" points="882.68,318.74,891.2638,313.9111,885.6665,314.7299,884.8477,309.1327,882.68,318.74" style="stroke:#181818;stroke-width:1.0;"/></g><!--link e50667032a754b9523110aa24c73e3fb to 93702543f41f355b4dbfaee831ce38a7--><g id="link_e50667032a754b9523110aa24c73e3fb_93702543f41f355b4dbfaee831ce38a7"><path codeLine="96" d="M487.68,570.78 C499.74,587.25 515.44,605.61 533,618.56 C556.04,635.55 579.8922,645.8999 604.5922,654.0499 " fill="none" id="e50667032a754b9523110aa24c73e3fb-to-93702543f41f355b4dbfaee831ce38a7" style="stroke:#181818;stroke-width:1.0;"/><polygon fill="#181818" points="610.29,655.93,602.9966,649.3114,605.5418,654.3633,600.4899,656.9085,610.29,655.93" style="stroke:#181818;stroke-width:1.0;"/></g><!--link e8c746b209cfb66a7d680c5770a77ad6 to f72c8ef5616765c0aa192f24c8657254--><g id="link_e8c746b209cfb66a7d680c5770a77ad6_f72c8ef5616765c0aa192f24c8657254"><path codeLine="97" d="M475,259.19 C475,277.85 475,294.13 475,312.74 " fill="none" id="e8c746b209cfb66a7d680c5770a77ad6-to-f72c8ef5616765c0aa192f24c8657254" style="stroke:#181818;stroke-width:1.0;"/><polygon fill="#181818" points="475,318.74,479,309.74,475,313.74,471,309.74,475,318.74" style="stroke:#181818;stroke-width:1.0;"/></g><!--link 6dbcf28e6ec0c3e95d36e31fc671db84 to 93702543f41f355b4dbfaee831ce38a7--><g id="link_6dbcf28e6ec0c3e95d36e31fc671db84_93702543f41f355b4dbfaee831ce38a7"><path codeLine="98" d="M690.51,570.98 C684.51,589.63 679.1856,606.1977 673.2056,624.8077 " fill="none" id="6dbcf28e6ec0c3e95d36e31fc671db84-to-93702543f41f355b4dbfaee831ce38a7" style="stroke:#181818;stroke-width:1.0;"/><polygon fill="#181818" points="671.37,630.52,677.9316,623.1752,672.8996,625.7597,670.3151,620.7278,671.37,630.52" style="stroke:#181818;stroke-width:1.0;"/></g><!--link f72c8ef5616765c0aa192f24c8657254 to e50667032a754b9523110aa24c73e3fb--><g id="link_f72c8ef5616765c0aa192f24c8657254_e50667032a754b9523110aa24c73e3fb"><path codeLine="99" d="M472.28,398 C470.32,425.87 468.1105,457.3048 466.1505,485.2048 " fill="none" id="f72c8ef5616765c0aa192f24c8657254-to-e50667032a754b9523110aa24c73e3fb" style="stroke:#181818;stroke-width:1.0;"/><polygon fill="#181818" points="465.73,491.19,470.3509,482.4924,466.0804,486.2023,462.3705,481.9318,465.73,491.19" style="stroke:#181818;stroke-width:1.0;"/></g><!--link f72c8ef5616765c0aa192f24c8657254 to 93702543f41f355b4dbfaee831ce38a7--><g id="link_f72c8ef5616765c0aa192f24c8657254_93702543f41f355b4dbfaee831ce38a7"><path codeLine="100" d="M518.05,397.96 C519.86,400.46 521.53,403.04 523,405.67 C570.27,490.25 512.43,540.62 570,618.56 C580.13,632.27 589.8667,640.0127 604.7167,647.8027 " fill="none" id="f72c8ef5616765c0aa192f24c8657254-to-93702543f41f355b4dbfaee831ce38a7" style="stroke:#181818;stroke-width:1.0;"/><polygon fill="#181818" points="610.03,650.59,603.9182,642.8669,605.6022,648.2673,600.2019,649.9513,610.03,650.59" style="stroke:#181818;stroke-width:1.0;"/></g><!--link f26d1c16dfbc137cbf45ada95568c459 to 93702543f41f355b4dbfaee831ce38a7--><g id="link_f26d1c16dfbc137cbf45ada95568c459_93702543f41f355b4dbfaee831ce38a7"><path codeLine="101" d="M813.51,570.97 C802.59,587.28 788.31,605.46 772,618.56 C753.16,633.69 734.6407,643.092 713.5407,651.312 " fill="none" id="f26d1c16dfbc137cbf45ada95568c459-to-93702543f41f355b4dbfaee831ce38a7" style="stroke:#181818;stroke-width:1.0;"/><polygon fill="#181818" points="707.95,653.49,717.7881,653.9502,712.6089,651.675,714.8841,646.4958,707.95,653.49" style="stroke:#181818;stroke-width:1.0;"/></g><!--link 4fe48c0ac95349dd0a4667648f26a5e2 to 93702543f41f355b4dbfaee831ce38a7--><g id="link_4fe48c0ac95349dd0a4667648f26a5e2_93702543f41f355b4dbfaee831ce38a7"><path codeLine="102" d="M273.86,570.96 C301.23,587.98 335.18,606.73 368,618.56 C449.89,648.06 545.1424,660.1017 604.0724,665.2117 " fill="none" id="4fe48c0ac95349dd0a4667648f26a5e2-to-93702543f41f355b4dbfaee831ce38a7" style="stroke:#181818;stroke-width:1.0;"/><polygon fill="#181818" points="610.05,665.73,601.4292,660.9675,605.0687,665.2981,600.7381,668.9375,610.05,665.73" style="stroke:#181818;stroke-width:1.0;"/></g><!--link ffa764f51f5c0719431093a954c2f981 to 93702543f41f355b4dbfaee831ce38a7--><g id="link_ffa764f51f5c0719431093a954c2f981_93702543f41f355b4dbfaee831ce38a7"><path codeLine="103" d="M649.21,259.12 C632.67,331.05 603.79,489.57 634,618.56 C634.91,622.46 634.0495,620.801 635.5195,624.671 " fill="none" id="ffa764f51f5c0719431093a954c2f981-to-93702543f41f355b4dbfaee831ce38a7" style="stroke:#181818;stroke-width:1.0;"/><polygon fill="#181818" points="637.65,630.28,638.1935,620.4462,635.8745,625.6058,630.7149,623.2869,637.65,630.28" style="stroke:#181818;stroke-width:1.0;"/></g><!--link ffa764f51f5c0719431093a954c2f981 to e89a2547a2d5b65ce72404c6afccd2c0--><g id="link_ffa764f51f5c0719431093a954c2f981_e89a2547a2d5b65ce72404c6afccd2c0"><path codeLine="104" d="M698.41,259.12 C707.49,267.31 717.33,275.63 727,282.78 C745.91,296.75 762.4375,307.2937 782.5075,318.9137 " fill="none" id="ffa764f51f5c0719431093a954c2f981-to-e89a2547a2d5b65ce72404c6afccd2c0" style="stroke:#181818;stroke-width:1.0;"/><polygon fill="#181818" points="787.7,321.92,781.9155,313.9489,783.3729,319.4147,777.907,320.8722,787.7,321.92" style="stroke:#181818;stroke-width:1.0;"/></g><!--link 7c3d136f9a1db9869ab1c166c7e12bc4 to 93702543f41f355b4dbfaee831ce38a7--><g id="link_7c3d136f9a1db9869ab1c166c7e12bc4_93702543f41f355b4dbfaee831ce38a7"><path codeLine="105" d="M618.61,99.15 C603.32,108.1 587.54,120.57 579,136.89 C537.5,216.15 566.36,517.44 612,618.56 C613.82,622.6 612.7233,621.5604 615.2833,625.3204 " fill="none" id="7c3d136f9a1db9869ab1c166c7e12bc4-to-93702543f41f355b4dbfaee831ce38a7" style="stroke:#181818;stroke-width:1.0;"/><polygon fill="#181818" points="618.66,630.28,616.9013,620.5894,615.846,626.147,610.2885,625.0918,618.66,630.28" style="stroke:#181818;stroke-width:1.0;"/></g><!--link 7c3d136f9a1db9869ab1c166c7e12bc4 to 6dbcf28e6ec0c3e95d36e31fc671db84--><g id="link_7c3d136f9a1db9869ab1c166c7e12bc4_6dbcf28e6ec0c3e95d36e31fc671db84"><path codeLine="106" d="M699.39,99.15 C714.68,108.1 730.46,120.57 739,136.89 C800.3,253.95 751.0855,412.0701 721.9355,485.8201 " fill="none" id="7c3d136f9a1db9869ab1c166c7e12bc4-to-6dbcf28e6ec0c3e95d36e31fc671db84" style="stroke:#181818;stroke-width:1.0;"/><polygon fill="#181818" points="719.73,491.4,726.7582,484.5004,721.5679,486.75,719.3183,481.5598,719.73,491.4" style="stroke:#181818;stroke-width:1.0;"/></g><!--link 7c3d136f9a1db9869ab1c166c7e12bc4 to ffa764f51f5c0719431093a954c2f981--><g id="link_7c3d136f9a1db9869ab1c166c7e12bc4_ffa764f51f5c0719431093a954c2f981"><path codeLine="107" d="M659,120.3 C659,138.96 659,155.24 659,173.85 " fill="none" id="7c3d136f9a1db9869ab1c166c7e12bc4-to-ffa764f51f5c0719431093a954c2f981" style="stroke:#181818;stroke-width:1.0;"/><polygon fill="#181818" points="659,179.85,663,170.85,659,174.85,655,170.85,659,179.85" style="stroke:#181818;stroke-width:1.0;"/></g><!--link 5ec88310017ea2e191b5d4479d729b52 to 93702543f41f355b4dbfaee831ce38a7--><g id="link_5ec88310017ea2e191b5d4479d729b52_93702543f41f355b4dbfaee831ce38a7"><path codeLine="108" d="M1012.77,570.85 C1000.83,588.17 984.53,607.2 965,618.56 C922.18,643.46 788.8072,658.1071 713.8172,664.6671 " fill="none" id="5ec88310017ea2e191b5d4479d729b52-to-93702543f41f355b4dbfaee831ce38a7" style="stroke:#181818;stroke-width:1.0;"/><polygon fill="#181818" points="707.84,665.19,717.1543,668.3905,712.821,664.7543,716.4572,660.4209,707.84,665.19" style="stroke:#181818;stroke-width:1.0;"/></g><!--link 06688d780595b8c350a2894384fe43b2 to c5e57a6d6341ad17dccba3c345981930--><g id="link_06688d780595b8c350a2894384fe43b2_c5e57a6d6341ad17dccba3c345981930"><path codeLine="109" d="M1423.73,120.3 C1422.64,138.96 1421.6908,155.2503 1420.6008,173.8603 " fill="none" id="06688d780595b8c350a2894384fe43b2-to-c5e57a6d6341ad17dccba3c345981930" style="stroke:#181818;stroke-width:1.0;"/><polygon fill="#181818" points="1420.25,179.85,1424.7694,171.0993,1420.5424,174.8586,1416.7831,170.6315,1420.25,179.85" style="stroke:#181818;stroke-width:1.0;"/></g><!--link 06688d780595b8c350a2894384fe43b2 to 57705f9c25e95f8fa9ae667ee4232094--><g id="link_06688d780595b8c350a2894384fe43b2_57705f9c25e95f8fa9ae667ee4232094"><path codeLine="110" d="M1390.6,111.58 C1385.3,114.88 1379.69,117.8 1374,119.89 C1266.94,159.15 1228.02,106.9 1118,136.89 C1083.53,146.28 1053.0317,160.4582 1023.9117,176.5482 " fill="none" id="06688d780595b8c350a2894384fe43b2-to-57705f9c25e95f8fa9ae667ee4232094" style="stroke:#181818;stroke-width:1.0;"/><polygon fill="#181818" points="1018.66,179.45,1028.472,178.5985,1023.0364,177.0319,1024.603,171.5963,1018.66,179.45" style="stroke:#181818;stroke-width:1.0;"/></g><!--SRC=[hLNBRXj93BpFLmWv6WYsN-p79JyIB0GsoJO6cOSWpTe1Wlpxqf8Tn2ilUWw13hgeYaLsLGcdQNsUn-_ZyZYSaBxXenm-RNAUBxWmhGkFsxWkbxy-7V1oQ8LZW1IQDTNOKdAG2kIu5UiTbNJuCT0wdzP5bkqWkQ23aD0nr0WaoGKJA68ZOaVcy7LuU9X7vacUyImF3yCm_FqR7b8oq0eva08jDomeCIQHuBmp9LpnBBIUSLlFbpkyWD6V6-ymGQW5dBVM8Bf0oOjlzOflgsvw3ysKGgmwXLgD4HF7REX54AQ47A_GVyxJFJ9ofUQoH253NeMpZ-9jevWirtmJVHfFCetB_SejEShI8DgOz6AgrXRNL76EaFIML_JJAC_tWvkBRCb6RfMiJrHR06Gi035JW7A5NiR71JzGdSYpzR4LL94bnuBrXIjI4kigtUPkSja-E9LNUdsK5enwWYc8WsgaM63nFkGh54-dUsJnoUXElWNRF40DN1kAP6z9IJ7T_B6oV20OXBB-q1YR19tOOYjm2AbmSgM2kqtbULnUeR-iFUEYtxEIt2nj09rkMW5jZReswY5JpG8jsbIvgAL_ONM-mlaj3DXITEf6QmAxWWqh9i-wJIXLN_9T64AJaFL1gO0FXTbWK7F6a7KSWjm4dsLUd-IuJdnyalD5StT48ZbjkD2RMNxgvxUSpgS9DzdmyLLKYUfNf_enw6sofIRHWy_L6p4LoZjHhQ5AQ62RUYtP4lIYnQjd0hbMidrzTat8yMN2nmh-snH7rYrkOiHGyz5hU4BDOC6bsaWJdSKxCFp-Gg2HIzYo9iTpnifGZ8dLKB0PVBc9kSYsQLDTZjDAE1tVzh_pXoO_PqxPG86QoOD1btM__F8Elhh_3p21GCB8qGUBR1CJLVJaDKBP5c_k8lXpw1RTP_xyfMltdJIzWXcwjRbFpJwQdkQXMy9xRzCfv2jDhpw7RZllKzEjwTjjEgllfEchwJN_FffkG-rKq-kKFqdJjL_tZssVcdqqtMZke-cjFdJ__FOjrUt8Aqsl3tVIzEhaNm00]--></g></svg>