<svg xmlns="http://www.w3.org/2000/svg" xmlns:xlink="http://www.w3.org/1999/xlink" contentStyleType="text/css" height="530px" preserveAspectRatio="none" style="width:441px;height:530px;background:#FFFFFF;" version="1.1" viewBox="0 0 441 530" width="441px" zoomAndPan="magnify"><defs/><g><!--cluster d2a57dc1d883fd21fb9951699df71cc7--><g id="cluster_d2a57dc1d883fd21fb9951699df71cc7"><polygon fill="none" points="16,32.3,26,22.3,166,22.3,166,403.78,156,413.78,16,413.78,16,32.3" style="stroke:#181818;stroke-width:1.0;"/><line style="stroke:#181818;stroke-width:1.0;" x1="156" x2="166" y1="32.3" y2="22.3"/><line style="stroke:#181818;stroke-width:1.0;" x1="16" x2="156" y1="32.3" y2="32.3"/><line style="stroke:#181818;stroke-width:1.0;" x1="156" x2="156" y1="32.3" y2="413.78"/><text fill="#000000" font-family="sans-serif" font-size="14" font-weight="bold" lengthAdjust="spacing" textLength="31" x="71.5" y="48.2951">App</text></g><!--cluster d77d5e503ad1439f585ac494268b351b--><g id="cluster_d77d5e503ad1439f585ac494268b351b"><polygon fill="none" points="190,16,200,6,424,6,424,403.78,414,413.78,190,413.78,190,16" style="stroke:#181818;stroke-width:1.0;"/><line style="stroke:#181818;stroke-width:1.0;" x1="414" x2="424" y1="16" y2="6"/><line style="stroke:#181818;stroke-width:1.0;" x1="190" x2="414" y1="16" y2="16"/><line style="stroke:#181818;stroke-width:1.0;" x1="414" x2="414" y1="16" y2="413.78"/><text fill="#000000" font-family="sans-serif" font-size="14" font-weight="bold" lengthAdjust="spacing" textLength="21" x="292.5" y="31.9951">Db</text></g><!--entity 893aba7f849e8e7e9eba282605c4877b--><g id="elem_893aba7f849e8e7e9eba282605c4877b"><rect fill="#F1F1F1" height="78.8906" rx="2.5" ry="2.5" style="stroke:#181818;stroke-width:0.5;" width="69" x="56.5" y="62.3"/><rect fill="#F1F1F1" height="10" style="stroke:#181818;stroke-width:0.5;" width="15" x="105.5" y="67.3"/><rect fill="#F1F1F1" height="2" style="stroke:#181818;stroke-width:0.5;" width="4" x="103.5" y="69.3"/><rect fill="#F1F1F1" height="2" style="stroke:#181818;stroke-width:0.5;" width="4" x="103.5" y="73.3"/><text fill="#000000" font-family="sans-serif" font-size="14" font-weight="bold" lengthAdjust="spacing" textLength="29" x="71.5" y="95.2951">app</text><text fill="#000000" font-family="sans-serif" font-size="14" lengthAdjust="spacing" textLength="4" x="71.5" y="111.592">&#160;</text><text fill="#000000" font-family="sans-serif" font-size="14" lengthAdjust="spacing" textLength="4" x="71.5" y="127.8889">&#160;</text></g><!--entity d8a3490ff1746ca72cf999c4fd7ba444--><g id="elem_d8a3490ff1746ca72cf999c4fd7ba444"><rect fill="#F1F1F1" height="39.2969" rx="2.5" ry="2.5" style="stroke:#181818;stroke-width:0.5;" width="118" x="32" y="358.49"/><polygon fill="#F1F1F1" points="133,363.49,133,377.49,145,377.49,145,369.49,139,363.49,133,363.49" style="stroke:#181818;stroke-width:0.5;"/><line style="stroke:#181818;stroke-width:0.5;" x1="139" x2="139" y1="363.49" y2="369.49"/><line style="stroke:#181818;stroke-width:0.5;" x1="145" x2="139" y1="369.49" y2="369.49"/><text fill="#000000" font-family="sans-serif" font-size="14" lengthAdjust="spacing" textLength="88" x="42" y="384.4851">/workspaces</text></g><!--entity 355aeb7ac3f8fa43e8d94fbf0e4b8d6c--><g id="elem_355aeb7ac3f8fa43e8d94fbf0e4b8d6c"><rect fill="#F1F1F1" height="111.4844" rx="2.5" ry="2.5" style="stroke:#181818;stroke-width:0.5;" width="203" x="205.5" y="46"/><rect fill="#F1F1F1" height="10" style="stroke:#181818;stroke-width:0.5;" width="15" x="388.5" y="51"/><rect fill="#F1F1F1" height="2" style="stroke:#181818;stroke-width:0.5;" width="4" x="386.5" y="53"/><rect fill="#F1F1F1" height="2" style="stroke:#181818;stroke-width:0.5;" width="4" x="386.5" y="57"/><text fill="#000000" font-family="sans-serif" font-size="14" font-weight="bold" lengthAdjust="spacing" textLength="20" x="220.5" y="78.9951">db</text><text fill="#000000" font-family="sans-serif" font-size="14" lengthAdjust="spacing" textLength="4" x="220.5" y="95.292">&#160;</text><text fill="#000000" font-family="sans-serif" font-size="14" lengthAdjust="spacing" textLength="156" x="220.5" y="111.5889">image: postgres:latest</text><text fill="#000000" font-family="sans-serif" font-size="14" lengthAdjust="spacing" textLength="163" x="220.5" y="127.8857">restart: unless-stopped</text><text fill="#000000" font-family="sans-serif" font-size="14" lengthAdjust="spacing" textLength="4" x="220.5" y="144.1826">&#160;</text></g><!--entity d5baecb173d637b4e1f821d6b00b6f89--><g id="elem_d5baecb173d637b4e1f821d6b00b6f89"><rect fill="#F1F1F1" height="39.2969" rx="2.5" ry="2.5" style="stroke:#181818;stroke-width:0.5;" width="189" x="212.5" y="358.49"/><polygon fill="#F1F1F1" points="384.5,363.49,384.5,377.49,396.5,377.49,396.5,369.49,390.5,363.49,384.5,363.49" style="stroke:#181818;stroke-width:0.5;"/><line style="stroke:#181818;stroke-width:0.5;" x1="390.5" x2="390.5" y1="363.49" y2="369.49"/><line style="stroke:#181818;stroke-width:0.5;" x1="396.5" x2="390.5" y1="369.49" y2="369.49"/><text fill="#000000" font-family="sans-serif" font-size="14" lengthAdjust="spacing" textLength="159" x="222.5" y="384.4851">/var/lib/postgresql/data</text></g><!--entity 57bdb6fb9a28ae7239d0053c1a25b455--><g id="elem_57bdb6fb9a28ae7239d0053c1a25b455"><rect fill="#F1F1F1" height="47.4453" rx="2.5" ry="2.5" style="stroke:#181818;stroke-width:0.5;" width="43" x="69.5" y="476.78"/><polygon fill="#F1F1F1" points="95.5,481.78,95.5,495.78,107.5,495.78,107.5,487.78,101.5,481.78,95.5,481.78" style="stroke:#181818;stroke-width:0.5;"/><line style="stroke:#181818;stroke-width:0.5;" x1="101.5" x2="101.5" y1="481.78" y2="487.78"/><line style="stroke:#181818;stroke-width:0.5;" x1="107.5" x2="101.5" y1="487.78" y2="487.78"/><line style="stroke:#181818;stroke-width:1.0;stroke-dasharray:1.0,2.0;" x1="70.5" x2="88.5" y1="497.9284" y2="497.9284"/><text fill="#000000" font-family="sans-serif" font-size="14" lengthAdjust="spacing" textLength="5" x="88.5" y="502.2751">/</text><line style="stroke:#181818;stroke-width:1.0;stroke-dasharray:1.0,2.0;" x1="93.5" x2="111.5" y1="497.9284" y2="497.9284"/></g><!--entity 7a600a491cfa836be11bce188a3fa3d5--><g id="elem_7a600a491cfa836be11bce188a3fa3d5"><rect fill="#F1F1F1" height="39.2969" rx="2.5" ry="2.5" style="stroke:#181818;stroke-width:0.5;" width="127" x="243.5" y="480.86"/><polygon fill="#F1F1F1" points="353.5,485.86,353.5,499.86,365.5,499.86,365.5,491.86,359.5,485.86,353.5,485.86" style="stroke:#181818;stroke-width:0.5;"/><line style="stroke:#181818;stroke-width:0.5;" x1="359.5" x2="359.5" y1="485.86" y2="491.86"/><line style="stroke:#181818;stroke-width:0.5;" x1="365.5" x2="359.5" y1="491.86" y2="491.86"/><text fill="#000000" font-family="sans-serif" font-size="14" lengthAdjust="spacing" textLength="97" x="253.5" y="506.8551">postgres-data</text></g><!--link d8a3490ff1746ca72cf999c4fd7ba444 to 57bdb6fb9a28ae7239d0053c1a25b455--><g id="link_d8a3490ff1746ca72cf999c4fd7ba444_57bdb6fb9a28ae7239d0053c1a25b455"><path codeLine="22" d="M91,398.21 C91,419.42 91,453.69 91,476.41 " fill="none" id="d8a3490ff1746ca72cf999c4fd7ba444-57bdb6fb9a28ae7239d0053c1a25b455" style="stroke:#181818;stroke-width:1.0;"/><text fill="#000000" font-family="sans-serif" font-size="13" lengthAdjust="spacing" textLength="46" x="92" y="442.8469">cached</text></g><!--link 893aba7f849e8e7e9eba282605c4877b to d8a3490ff1746ca72cf999c4fd7ba444--><g id="link_893aba7f849e8e7e9eba282605c4877b_d8a3490ff1746ca72cf999c4fd7ba444"><path codeLine="23" d="M91,141.48 C91,201.16 91,307.38 91,352.07 " fill="none" id="893aba7f849e8e7e9eba282605c4877b-to-d8a3490ff1746ca72cf999c4fd7ba444" style="stroke:#181818;stroke-width:1.0;stroke-dasharray:7.0,7.0;"/><polygon fill="#181818" points="91,358.07,95,349.07,91,353.07,87,349.07,91,358.07" style="stroke:#181818;stroke-width:1.0;"/><text fill="#000000" font-family="sans-serif" font-size="13" lengthAdjust="spacing" textLength="23" x="92" y="262.5569">use</text></g><!--link d5baecb173d637b4e1f821d6b00b6f89 to 7a600a491cfa836be11bce188a3fa3d5--><g id="link_d5baecb173d637b4e1f821d6b00b6f89_7a600a491cfa836be11bce188a3fa3d5"><path codeLine="24" d="M307,398.21 C307,420.75 307,458.02 307,480.52 " fill="none" id="d5baecb173d637b4e1f821d6b00b6f89-7a600a491cfa836be11bce188a3fa3d5" style="stroke:#181818;stroke-width:1.0;"/><text fill="#000000" font-family="sans-serif" font-size="13" lengthAdjust="spacing" textLength="14" x="308" y="442.8469">rw</text></g><!--link 355aeb7ac3f8fa43e8d94fbf0e4b8d6c to d5baecb173d637b4e1f821d6b00b6f89--><g id="link_355aeb7ac3f8fa43e8d94fbf0e4b8d6c_d5baecb173d637b4e1f821d6b00b6f89"><path codeLine="25" d="M307,157.94 C307,219.92 307,311.15 307,352.02 " fill="none" id="355aeb7ac3f8fa43e8d94fbf0e4b8d6c-to-d5baecb173d637b4e1f821d6b00b6f89" style="stroke:#181818;stroke-width:1.0;stroke-dasharray:7.0,7.0;"/><polygon fill="#181818" points="307,358.02,311,349.02,307,353.02,303,349.02,307,358.02" style="stroke:#181818;stroke-width:1.0;"/><text fill="#000000" font-family="sans-serif" font-size="13" lengthAdjust="spacing" textLength="23" x="308" y="262.5569">use</text></g><!--SRC=[XPBDhjiW48NtF0NoCb9iC60WYqgLxbjKNSmmGshLiLtZUrEfwhlNIMxwj_4E2Suvtnm6Xc6wNlhl_NWMuqGigu_pN4aeabfmdfAc44ocLcUCqUakHifUf-Jb3o7JT9cdaSTLXcW0mUTW8mVs71cX3MsdNBB1UvIVnE40ytmu224-2rZMFaDQPTLSf-LhcI5nUSG6C3QgdBMtNGBVfXnZJ3QJHx3MYf_ld2_uUEyzENRA06bhOdR1GRBHjbr0upJ-YscS0qOFoUIGmHeE56t6hDXYe2xTCGblbFq5pdoIyrJMyyBbDC3APHNRSTteJ_9r7BYKOrcdUMRwRwWtM9gXn-Qf_ZOq12iyY1q29zJUK6SyMjOvj9ewL0gx7E8suH-dkcxg-Yvp7ccxnxZr2knR4qafPvA6rg5rxY_HC_NuEzD3fnJOg5E6O3fahJ6n3blP6GmviLUxFD9n5q6UP9KWVM6gnEv2r3NLzOVT_xvvlXQkn5vjTyAzEMzkoxKIktlmfDiBVQVx1G00]--></g></svg>